<?xml version="1.0" standalone="no"?><!DOCTYPE svg PUBLIC "-//W3C//DTD SVG 1.1//EN" "http://www.w3.org/Graphics/SVG/1.1/DTD/svg11.dtd"><svg t="1749045321693" class="icon" viewBox="0 0 1030 1024" version="1.1" xmlns="http://www.w3.org/2000/svg" p-id="4561" xmlns:xlink="http://www.w3.org/1999/xlink" width="201.171875" height="200"><path d="M531.2 83.2h-153.6l-102.4 70.4-25.6 76.8-160 83.2v76.8l57.6 83.2 96 51.2 64 38.4 115.2 51.2 44.8 25.6 300.8 19.2 115.2-38.4 76.8-108.8-19.2-121.6-70.4-108.8-147.2-179.2-76.8-38.4z" fill="#E00B0B" p-id="4562"></path><path d="M934.4 780.8c-19.2-6.4-38.4-6.4-64-6.4-38.4 0-70.4 6.4-89.6 19.2l-6.4 6.4v6.4c0 6.4 0 19.2-25.6 19.2-32 6.4-57.6 44.8-70.4 57.6-12.8 12.8-57.6 25.6-51.2 12.8 6.4-6.4 25.6-25.6 32-51.2 12.8-19.2 19.2-25.6 32-44.8 6.4-6.4 19.2-25.6 19.2-38.4 6.4-12.8 0-32 6.4-38.4 0-12.8 12.8-32 12.8-51.2 0-6.4-32 12.8-44.8 12.8-12.8 0-32-6.4-44.8-12.8-19.2 0-25.6 12.8-44.8 12.8-6.4 0-19.2-6.4-32-12.8-19.2 0-51.2 12.8-96 12.8-51.2 0-96-64-102.4-70.4-6.4-12.8-19.2-12.8-25.6 0-12.8 6.4-19.2 0-25.6-6.4-6.4-12.8-25.6-44.8-51.2-51.2-38.4-12.8-57.6 19.2-51.2 44.8 0 25.6 19.2 32 25.6 44.8 6.4 12.8 12.8 19.2 25.6 25.6 12.8 6.4 12.8 12.8 12.8 19.2 0 6.4-12.8 6.4-19.2 6.4-12.8 0-25.6 0-32-6.4l-25.6-25.6c-6.4-12.8-19.2-19.2-38.4-19.2-6.4 0-12.8 0-19.2 6.4-25.6 12.8-51.2 19.2-83.2 19.2h-32c-19.2-51.2-25.6-102.4-25.6-160 0-281.6 224-505.6 505.6-505.6s505.6 224 505.6 505.6c6.4 96-25.6 192-76.8 268.8z m-134.4-409.6c-6.4 19.2-12.8 38.4-44.8 57.6-6.4 0-6.4 0-6.4-6.4 12.8-19.2 12.8-25.6 19.2-32 6.4-12.8 6.4-25.6 0-64-19.2-70.4-57.6-160-89.6-192-25.6-25.6-76.8-38.4-121.6-25.6-19.2 6.4-51.2 19.2-108.8 6.4-102.4-25.6-121.6 32-128 51.2-6.4 25.6-19.2 89.6-19.2 89.6-6.4 25.6-12.8 70.4 153.6 102.4 76.8 12.8 83.2 32 83.2 51.2 6.4 25.6 12.8 38.4 25.6 44.8 12.8 6.4 0 12.8-12.8 12.8-32 6.4-153.6-32-224-70.4-57.6-38.4-57.6-70.4-44.8-96-89.6-6.4-153.6 6.4-166.4 51.2-19.2 70.4 153.6 192 358.4 256 211.2 64 428.8 19.2 454.4-115.2 6.4-57.6-44.8-102.4-128-121.6z m-198.4-185.6c-12.8 0-19.2 0-25.6-6.4 19.2-6.4 32-12.8 32-19.2 0-6.4-25.6-12.8-57.6-12.8h-12.8c12.8-6.4 25.6-12.8 44.8-12.8h19.2c32 0 57.6 12.8 57.6 32 0 6.4-25.6 19.2-57.6 19.2z m-128 57.6c-57.6 6.4-64 12.8-76.8 19.2-12.8 19.2-38.4-19.2-38.4-19.2-12.8 0-25.6-19.2-19.2-38.4 6.4-19.2 19.2-12.8 25.6-6.4 6.4 6.4 19.2 19.2 32 19.2s32-6.4 57.6-6.4 44.8 6.4 44.8 19.2c6.4 0 0 6.4-25.6 12.8z m102.4 499.2c6.4 6.4 19.2 12.8 32 6.4l12.8-12.8s6.4 12.8 0 19.2c0 6.4-6.4 12.8-12.8 12.8-6.4 6.4-19.2 12.8-38.4 0-12.8-6.4-12.8-6.4-25.6-6.4s-12.8-6.4-12.8-19.2c6.4 0 25.6-6.4 44.8 0z" fill="#152935" p-id="4563"></path></svg>