<?xml version="1.0" standalone="no"?><!DOCTYPE svg PUBLIC "-//W3C//DTD SVG 1.1//EN" "http://www.w3.org/Graphics/SVG/1.1/DTD/svg11.dtd"><svg t="1748918142781" class="icon" viewBox="0 0 4266 1024" version="1.1" xmlns="http://www.w3.org/2000/svg" p-id="15462" xmlns:xlink="http://www.w3.org/1999/xlink" width="833.203125" height="200"><path d="M4019.754667 643.84c0 82.922667 49.984 123.413333 140.224 123.413333a368.789333 368.789333 0 0 0 82.581333-11.904v-96.213333c-17.28 5.546667-35.306667 8.362667-53.44 8.362667-37.482667 0-51.392-11.84-51.392-46.72v-147.861334h108.288v-99.050666h-108.288v-125.568l-117.973333 25.813333v99.754667h-78.4v99.050666h77.696l0.704 170.858667v0.042667z m-367.808 2.069333c0-25.813333 25.685333-38.4 64.533333-38.4 23.68-0.128 47.232 2.922667 70.058667 9.045334v50.261333a143.893333 143.893333 0 0 1-73.514667 18.133333c-38.208 0-61.077333-14.677333-61.077333-39.04z m36.074666 122.666667a184.533333 184.533333 0 0 0 106.858667-29.909333v23.68h116.586667V513.344c0-94.826667-63.146667-146.474667-169.301334-146.474667-59.008 0-117.290667 13.973333-180.458666 42.581334l42.368 87.146666c45.098667-18.816 83.264-30.677333 116.544-30.677333 48.618667 0 73.557333 18.837333 73.557333 57.877333v18.837334a337.92 337.92 0 0 0-87.402667-11.157334c-99.264 0-158.976 41.877333-158.976 116.501334 0 68.330667 54.144 120.661333 140.224 120.661333v-0.064z m-641.28-6.229333h125.610667v-201.578667h210.282667v200.874667h125.632V248.32h-125.632v197.354667h-210.282667v-197.333334h-125.632v514.026667z m-478.229333-194.581334c0-55.808 43.797333-98.368 101.376-98.368a122.602667 122.602667 0 0 1 81.898667 30.037334v136.021333a115.008 115.008 0 0 1-81.898667 31.36c-56.896-0.704-101.376-43.221333-101.376-99.050667z m184.704 194.56h116.565333V222.549333l-117.994666 25.770667v145.770667a194.56 194.56 0 0 0-98.56-25.813334c-112.426667 0-200.576 87.210667-200.576 198.826667a197.546667 197.546667 0 0 0 55.68 140.032 195.584 195.584 0 0 0 137.941333 59.434667h3.498667c37.162667 0 73.258667-11.733333 103.402666-33.493334v29.333334l0.042667-0.042667z m-535.893333-298.474666c37.461333 0 68.736 24.384 81.194666 61.333333h-160.96a80.32 80.32 0 0 1 79.765334-61.333333zM2018.133333 568.448c0 112.981333 91.648 200.874667 210.346667 200.874667 65.216 0 112.405333-17.429333 160.96-58.56l-78.4-69.76c-18.026667 18.816-45.098667 29.333333-77.056 29.333333a99.712 99.712 0 0 1-95.061333-61.44h274.837333v-29.290667c0-123.434667-82.602667-212.053333-195.008-212.053333-109.44-1.642667-199.509333 86.08-201.322667 196.053333 0.64 1.536 0.917333 3.2 0.704 4.842667z m-203.285333-212.032c41.6 0 65.173333 26.517333 65.173333 57.877333 0 31.424-23.552 57.92-65.216 57.92h-124.202666v-115.797333h124.245333zM1564.970667 761.642667h125.632v-186.88h95.744l96.490666 186.88h140.16l-112.405333-205.738667a155.712 155.712 0 0 0 96.426667-144.384c0-92.053333-72.170667-163.904-180.437334-163.904H1564.928v514.026667h0.042667z" fill="#000000" p-id="15463"></path><path d="M881.408 578.901333c86.741333 0 212.373333-18.133333 212.373333-122.026666 0-8.021333-0.704-15.914667-2.133333-23.744L1040.32 207.146667c-11.776-49.557333-22.186667-72.533333-108.949333-115.797334C864.064 56.490667 717.610667 0 673.877333 0c-40.96 0-52.736 52.266667-100.608 52.266667-46.506667 0-80.512-39.04-124.202666-39.04-41.664 0-68.736 28.650667-89.6 87.210666 0 0-58.261333 165.312-65.92 189.738667a43.093333 43.093333 0 0 0-1.365334 13.226667c-0.682667 64.170667 251.264 274.816 589.226667 275.498666m225.578667-79.466666c11.776 57.173333 11.776 63.466667 11.776 70.4 0 97.621333-108.949333 152.021333-252.629334 152.021333-324.821333 0-608.661333-191.061333-608.661333-317.312a128.576 128.576 0 0 1 10.389333-50.901333C151.317333 359.189333 0 380.16 0 514.048 0 733.802667 517.76 1004.373333 927.232 1004.373333c314.346667 0 393.493333-142.933333 393.493333-256.021333 0-88.533333-76.330667-188.992-213.781333-248.96" fill="#EE0000" p-id="15464"></path><path d="M1106.944 499.413333c11.818667 57.194667 11.818667 63.488 11.818667 70.421334 0 97.621333-108.949333 152.021333-252.629334 152.021333-324.821333 0-608.661333-191.061333-608.661333-317.312a128.576 128.576 0 0 1 10.389333-50.901333l25.706667-63.466667a43.093333 43.093333 0 0 0-1.386667 13.226667c0 64.170667 251.946667 274.816 589.226667 274.816 86.741333 0 212.373333-18.133333 212.373333-122.048 0-8-0.704-15.893333-2.133333-23.744l15.296 66.986666z" fill="#000000" p-id="15465"></path></svg>